<?xml version="1.0" encoding="utf-8"?>
<!-- Generator: Adobe Illustrator 25.0.0, SVG Export Plug-In . SVG Version: 6.00 Build 0)  -->
<svg version="1.1" id="圖層_1" xmlns="http://www.w3.org/2000/svg" xmlns:xlink="http://www.w3.org/1999/xlink" x="0px" y="0px"
	 width="47.5px" height="47.5px" viewBox="0 0 47.5 47.5" style="enable-background:new 0 0 47.5 47.5;" xml:space="preserve">
<style type="text/css">
	.st0{fill-rule:evenodd;clip-rule:evenodd;fill:#FF0076;}
	.st1{fill:#FFFFFF;}
</style>
<g>
	<g>
		<g>
			<path class="st0" d="M47.5,23.7c0,13.1-10.6,23.7-23.7,23.7C10.6,47.5,0,36.8,0,23.7S10.6,0,23.7,0S47.5,10.6,47.5,23.7"/>
		</g>
	</g>
</g>
<g>
	<path class="st1" d="M23.8,11.6c4,0,4.4,0,6,0.1c1.4,0.1,2.2,0.3,2.7,0.5c0.7,0.3,1.2,0.6,1.7,1.1c0.5,0.5,0.8,1,1.1,1.7
		c0.2,0.5,0.4,1.3,0.5,2.7c0.1,1.6,0.1,2,0.1,6s0,4.4-0.1,6c-0.1,1.4-0.3,2.2-0.5,2.7c-0.3,0.7-0.6,1.2-1.1,1.7
		c-0.5,0.5-1,0.8-1.7,1.1c-0.5,0.2-1.3,0.4-2.7,0.5c-1.6,0.1-2,0.1-6,0.1s-4.4,0-6-0.1c-1.4-0.1-2.2-0.3-2.7-0.5
		c-0.7-0.3-1.2-0.6-1.7-1.1c-0.5-0.5-0.8-1-1.1-1.7c-0.2-0.5-0.4-1.3-0.5-2.7c-0.1-1.6-0.1-2-0.1-6s0-4.4,0.1-6
		c0.1-1.4,0.3-2.2,0.5-2.7c0.3-0.7,0.6-1.2,1.1-1.7c0.5-0.5,1-0.8,1.7-1.1c0.5-0.2,1.3-0.4,2.7-0.5C19.3,11.6,19.8,11.6,23.8,11.6
		 M23.8,8.9c-4,0-4.5,0-6.1,0.1c-1.6,0.1-2.7,0.3-3.6,0.7c-1,0.4-1.8,0.9-2.6,1.7c-0.8,0.8-1.3,1.6-1.7,2.6c-0.4,0.9-0.6,2-0.7,3.6
		c-0.1,1.6-0.1,2.1-0.1,6.1c0,4,0,4.5,0.1,6.1c0.1,1.6,0.3,2.7,0.7,3.6c0.4,1,0.9,1.8,1.7,2.6c0.8,0.8,1.6,1.3,2.6,1.7
		c0.9,0.4,2,0.6,3.6,0.7c1.6,0.1,2.1,0.1,6.1,0.1s4.5,0,6.1-0.1c1.6-0.1,2.7-0.3,3.6-0.7c1-0.4,1.8-0.9,2.6-1.7s1.3-1.6,1.7-2.6
		c0.4-0.9,0.6-2,0.7-3.6c0.1-1.6,0.1-2.1,0.1-6.1s0-4.5-0.1-6.1c-0.1-1.6-0.3-2.7-0.7-3.6c-0.4-1-0.9-1.8-1.7-2.6
		c-0.8-0.8-1.6-1.3-2.6-1.7c-0.9-0.4-2-0.6-3.6-0.7C28.3,9,27.8,8.9,23.8,8.9L23.8,8.9z"/>
	<path class="st1" d="M23.8,16.1c-4.2,0-7.6,3.4-7.6,7.6s3.4,7.6,7.6,7.6s7.6-3.4,7.6-7.6S27.9,16.1,23.8,16.1z M23.8,28.7
		c-2.7,0-4.9-2.2-4.9-4.9s2.2-4.9,4.9-4.9s4.9,2.2,4.9,4.9S26.5,28.7,23.8,28.7z"/>
	<circle class="st1" cx="31.7" cy="15.8" r="1.8"/>
</g>
</svg>
