<svg id="圖層_1" data-name="圖層 1" xmlns="http://www.w3.org/2000/svg" viewBox="0 0 33.16 17.44"><defs><style>.cls-1{fill:#fff;}.cls-2{fill:#01667b;}</style></defs><title>工作區域 2</title><path class="cls-1" d="M33.16,16V1.45A1.45,1.45,0,0,0,31.71,0H1.45A1.45,1.45,0,0,0,0,1.45V16a1.45,1.45,0,0,0,1.45,1.45H31.71A1.45,1.45,0,0,0,33.16,16Z"/><path class="cls-2" d="M5.16,13.22V5.35H7.54L9,10.72l1.41-5.37h2.39v7.87H11.28V7L9.72,13.22H8.19L6.63,7v6.19Z"/><path class="cls-2" d="M21.42,13.22H19.7L19,11.43H15.87l-.65,1.79H13.53L16.6,5.35h1.68ZM18.5,10.11,17.42,7.19l-1.07,2.92Z"/><path class="cls-2" d="M22.27,13.22V5.35h2.55a9,9,0,0,1,1.88.12,2.11,2.11,0,0,1,1.14.77,2.48,2.48,0,0,1,.45,1.53A2.62,2.62,0,0,1,28,9a2.24,2.24,0,0,1-.67.78,2.4,2.4,0,0,1-.82.37,8.71,8.71,0,0,1-1.65.11h-1v3Zm1.59-6.54V8.92h.86A4.13,4.13,0,0,0,26,8.79a1.07,1.07,0,0,0,.5-.38,1.08,1.08,0,0,0,.18-.62,1,1,0,0,0-.26-.7,1,1,0,0,0-.63-.35,7,7,0,0,0-1.15-.06Z"/></svg>